<?xml version="1.0" encoding="utf-8"?>
<!-- Generator: Adobe Illustrator 24.2.1, SVG Export Plug-In . SVG Version: 6.00 Build 0)  -->
<svg version="1.1" id="_x31_" xmlns="http://www.w3.org/2000/svg" xmlns:xlink="http://www.w3.org/1999/xlink" x="0px" y="0px"
	 viewBox="0 0 16 16" style="enable-background:new 0 0 16 16;" xml:space="preserve">
<style type="text/css">
	.st0{fill-rule:evenodd;clip-rule:evenodd;fill:#757575;}
</style>
<g>
	<rect x="3.1" y="7.3" class="st0" width="0.8" height="0.8"/>
	<rect x="7.1" y="7.3" class="st0" width="0.8" height="2.5"/>
	<path class="st0" d="M14,0H4C2.9,0,2,0.9,2,2v2H1.7C0.8,4,0,4.7,0,5.6v5.8C0,12.3,0.7,13,1.7,13H2v1c0,1.1,0.9,2,2,2h10
		c1.1,0,2-0.9,2-2V2C16,0.9,15.1,0,14,0z M2,6h1.9C4.5,6,5,6.6,5,7.3v0.8c0,0.7-0.5,1.2-1.1,1.2H3.1V11H2V6z M14,14H4v-1h10V14z
		 M6,11V6h1.9C8.5,6,9,6.6,9,7.3v2.4C9,10.4,8.5,11,7.9,11H6z M13,8.1v1.2h-1.5V11H10V6h3v1.3h-1.5v0.8H13z M14,4H4V2h10V4z"/>
</g>
</svg>
